<svg width="80" height="80" viewBox="0 0 80 80" xmlns="http://www.w3.org/2000/svg">
  <defs>
    <linearGradient id="greenGradient" x1="0%" y1="0%" x2="100%" y2="100%">
      <stop offset="0%" style="stop-color:#2ECC71;stop-opacity:1" />
      <stop offset="100%" style="stop-color:#27AE60;stop-opacity:1" />
    </linearGradient>
  </defs>
  
  <!-- Chat Stack Icon -->
  <g transform="translate(20, 20)">
    <!-- Chat Bubble 1 (back) - most transparent -->
    <path d="M7,0h4.5c3.8,0,7,3.2,7,7l0,0c0,3.8-3.2,7-7,7H7c-1.2,0-2.4,0-3.6,0c-1,0-2.5,0.1-3.1-0.7C-0.1,13.2,0,12,0,10.8
		c0-1.3,0-2.5,0-3.5l0,0C0,3.2,3.2,0,7,0z" fill="#2ECC71" opacity="0.3"/>
    
    <!-- Chat Bubble 2 (middle) - medium transparency -->
    <path d="M14,7h4.5c3.8,0,7,3.2,7,7l0,0c0,3.8-3.2,7-7,7h-4.5c-1.2,0-2.4,0-3.6,0c-1,0-2.5,0.1-3.1-0.7C6.9,20.2,7,19,7,17.8
		c0-1.3,0-2.5,0-3.5l0,0C7,10.2,10.2,7,14,7z" fill="#2ECC71" opacity="0.6"/>
    
    <!-- Chat Bubble 3 (front) - least transparent -->
    <path d="M21,14h4.5c3.8,0,7,3.2,7,7l0,0c0,3.8-3.2,7-7,7h-4.5c-1.2,0-2.4,0-3.6,0c-1,0-2.5,0.1-3.1-0.7
		C13.9,27.2,14,26,14,24.8c0-1.3,0-2.5,0-3.5l0,0C14,17.2,17.2,14,21,14z" fill="#2ECC71" opacity="0.9"/>
  </g>
</svg> 