<?xml version="1.0" encoding="utf-8"?>
<!-- Generator: Adobe Illustrator 27.3.1, SVG Export Plug-In . SVG Version: 6.00 Build 0)  -->
<svg version="1.1" id="Layer_1" xmlns="http://www.w3.org/2000/svg" xmlns:xlink="http://www.w3.org/1999/xlink" x="0px" y="0px"
	 viewBox="0 0 81 81" style="enable-background:new 0 0 81 81;" xml:space="preserve">
<style type="text/css">
	.st0{opacity:0.3;fill:#FFFFFF;enable-background:new    ;}
	.st1{opacity:0.6;fill:#FFFFFF;enable-background:new    ;}
	.st2{opacity:0.9;fill:#FFFFFF;enable-background:new    ;}
</style>
<g transform="translate(20, 20)">
	<path class="st0" d="M-2-13H9.1c9.4,0,17.2,7.9,17.2,17.2l0,0c0,9.4-7.9,17.2-17.2,17.2H-2c-3,0-5.9,0-8.9,0
		c-2.5,0-6.2,0.2-7.6-1.7c-1-0.2-0.7-3.2-0.7-6.2c0-3.2,0-6.2,0-8.6l0,0C-19.2-5.1-11.4-13-2-13z"/>
	<path class="st1" d="M15.2,4.3h11.1c9.4,0,17.2,7.9,17.2,17.2l0,0c0,9.4-7.9,17.2-17.2,17.2H15.2c-3,0-5.9,0-8.9,0
		c-2.5,0-6.2,0.2-7.6-1.7c-1-0.2-0.7-3.2-0.7-6.2c0-3.2,0-6.2,0-8.6l0,0C-2,12.1,5.9,4.3,15.2,4.3z"/>
	<path class="st2" d="M32.4,21.5h11.1c9.4,0,17.2,7.9,17.2,17.2l0,0c0,9.4-7.9,17.2-17.2,17.2H32.4c-3,0-5.9,0-8.9,0
		c-2.5,0-6.2,0.2-7.6-1.7c-1-0.2-0.7-3.2-0.7-6.2c0-3.2,0-6.2,0-8.6l0,0C15.2,29.4,23.1,21.5,32.4,21.5z"/>
</g>
</svg>
