<?xml version="1.0" encoding="utf-8"?>
<!-- Generator: Adobe Illustrator 27.3.1, SVG Export Plug-In . SVG Version: 6.00 Build 0)  -->
<svg version="1.1" id="Layer_1" xmlns="http://www.w3.org/2000/svg" xmlns:xlink="http://www.w3.org/1999/xlink" x="0px" y="0px"
	 viewBox="0 0 200 80" style="enable-background:new 0 0 200 80;" xml:space="preserve">
<style type="text/css">
	.st0{opacity:0.3;fill:#2ECC71;enable-background:new    ;}
	.st1{opacity:0.6;fill:#2ECC71;enable-background:new    ;}
	.st2{opacity:0.9;fill:#2ECC71;enable-background:new    ;}
	.st3{fill:none;stroke:#000000;stroke-width:5.000000e-03;stroke-miterlimit:10;}
	.st4{fill:none;}
	.st5{fill:none;stroke:#000000;stroke-width:2.000000e-02;stroke-miterlimit:10;}
	.st6{fill:#2C3E50;}
	.st7{font-family:'Poppins-SemiBold';}
	.st8{font-size:32px;}
	.st9{fill:#7F8C8D;}
	.st10{font-family:'ArialMT';}
	.st11{font-size:12px;}
</style>
<g transform="translate(10, 20)">
	<path class="st0" d="M7,0h4.5c3.8,0,7,3.2,7,7l0,0c0,3.8-3.2,7-7,7H7c-1.2,0-2.4,0-3.6,0c-1,0-2.5,0.1-3.1-0.7C-0.1,13.2,0,12,0,10.8
		c0-1.3,0-2.5,0-3.5l0,0C0,3.2,3.2,0,7,0z"/>
	<path class="st1" d="M14,7h4.5c3.8,0,7,3.2,7,7l0,0c0,3.8-3.2,7-7,7h-4.5c-1.2,0-2.4,0-3.6,0c-1,0-2.5,0.1-3.1-0.7C6.9,20.2,7,19,7,17.8
		c0-1.3,0-2.5,0-3.5l0,0C7,10.2,10.2,7,14,7z"/>
	<path class="st2" d="M21,14h4.5c3.8,0,7,3.2,7,7l0,0c0,3.8-3.2,7-7,7h-4.5c-1.2,0-2.4,0-3.6,0c-1,0-2.5,0.1-3.1-0.7
		C13.9,27.2,14,26,14,24.8c0-1.3,0-2.5,0-3.5l0,0C14,17.2,17.2,14,21,14z"/>
	<path class="st3" d="M7.2,24"/>
	<path class="st3" d="M22,24"/>
	<path class="st4" d="M12,26.8"/>
	<path class="st4" d="M12,17.6"/>
	<path class="st4" d="M25.8,24"/>
	<path class="st4" d="M10.3,24"/>
	<path class="st5" d="M12,28"/>
	<path class="st5" d="M12,18.3"/>
	<path class="st5" d="M8.5,24"/>
	<path class="st5" d="M22.5,24"/>
	<path class="st3" d="M12,25"/>
	<path class="st3" d="M12,19.6"/>
</g>
<text transform="matrix(1 0 0 1 60 45)" class="st6 st7 st8">novi</text>
<text transform="matrix(1 0 0 1 60 65)" class="st9 st10 st11">Smart Commerce Suite</text>
</svg>
